<!-- <svg xmlns="http://www.w3.org/2000/svg" viewBox="0 0 1440 320"><path fill="#d4f5ff" fill-opacity="1" d="M0,64L16,74.7C32,85,64,107,96,128C128,149,160,171,192,181.3C224,192,256,192,288,202.7C320,213,352,235,384,224C416,213,448,171,480,144C512,117,544,107,576,122.7C608,139,640,181,672,192C704,203,736,181,768,197.3C800,213,832,267,864,256C896,245,928,171,960,117.3C992,64,1024,32,1056,58.7C1088,85,1120,171,1152,186.7C1184,203,1216,149,1248,149.3C1280,149,1312,203,1344,192C1376,181,1408,107,1424,69.3L1440,32L1440,320L1424,320C1408,320,1376,320,1344,320C1312,320,1280,320,1248,320C1216,320,1184,320,1152,320C1120,320,1088,320,1056,320C1024,320,992,320,960,320C928,320,896,320,864,320C832,320,800,320,768,320C736,320,704,320,672,320C640,320,608,320,576,320C544,320,512,320,480,320C448,320,416,320,384,320C352,320,320,320,288,320C256,320,224,320,192,320C160,320,128,320,96,320C64,320,32,320,16,320L0,320Z"></path></svg> -->
<svg xmlns="http://www.w3.org/2000/svg" viewBox="0 0 1440 320"><path fill="#d4f5ff" fill-opacity="1" d="M0,288L24,277.3C48,267,96,245,144,218.7C192,192,240,160,288,122.7C336,85,384,43,432,37.3C480,32,528,64,576,74.7C624,85,672,75,720,90.7C768,107,816,149,864,138.7C912,128,960,64,1008,64C1056,64,1104,128,1152,133.3C1200,139,1248,85,1296,69.3C1344,53,1392,75,1416,85.3L1440,96L1440,320L1416,320C1392,320,1344,320,1296,320C1248,320,1200,320,1152,320C1104,320,1056,320,1008,320C960,320,912,320,864,320C816,320,768,320,720,320C672,320,624,320,576,320C528,320,480,320,432,320C384,320,336,320,288,320C240,320,192,320,144,320C96,320,48,320,24,320L0,320Z"></path></svg>